# xmcd
#
# Track frame offsets: 
#        150
#        16760
#        31819
#        52426
#        70866
#        86033
#        102935
#        117230
#        132148
#        150923
#        167851
#        185251
#        201341
#        223686
#        244326
#        258357
#        276331
#        293606
#        311102
#        331195
#
# Disc length: 4632 seconds
#
# Revision: 0
# Processed by: cddbd v1.5.1PL2 Copyright (c) Steve Scherf et al.
# Submitted via: ExactAudioCopy v0.95b3
#
DISCID=24121614
DTITLE=Various Artist - the best of deutsch rap
DYEAR=2004
DGENRE=Rap
TTITLE0=ferris mc's - fick dich
TTITLE1=tic tac toe - warum
TTITLE2=spax - kriegstagebuch
TTITLE3=bushido - vom bordstein bis zur skyline
TTITLE4=beginner - fliule
TTITLE5=sam ragga band feat. jan delay - die welt steht still
TTITLE6=seed - musik monks
TTITLE7=gang star - skills
TTITLE8=curse feat. gentleman - widerstand
TTITLE9=asd - sheak preview
TTITLE10=allies ist die sekte - harmonie
TTITLE11=dead pres - hip-hop
TTITLE12=patrice - sunshine
TTITLE13=petey pablo - raise up
TTITLE14=team eimsblish - 2 4 6 8 mcs
TTITLE15=brand nubian - word is bond
TTITLE16=massive tine - tralimreise
TTITLE17=siebe - zeigefinger
TTITLE18=tefla and jaleel - geh jlinge
TTITLE19=barringthon levy - here i come
EXTD=
EXTT0=
EXTT1=
EXTT2=
EXTT3=
EXTT4=
EXTT5=
EXTT6=
EXTT7=
EXTT8=
EXTT9=
EXTT10=
EXTT11=
EXTT12=
EXTT13=
EXTT14=
EXTT15=
EXTT16=
EXTT17=
EXTT18=
EXTT19=
PLAYORDER=
